<svg width="320" height="320" viewBox="0 0 320 320" fill="none" xmlns="http://www.w3.org/2000/svg">
  <defs>
    <radialGradient id="bgGlow" cx="50%" cy="38%" r="70%">
      <stop offset="0%" stop-color="#67E8F9" stop-opacity="0.35"/>
      <stop offset="48%" stop-color="#FB7185" stop-opacity="0.18"/>
      <stop offset="100%" stop-color="#090D16"/>
    </radialGradient>
    <linearGradient id="hair" x1="80" y1="36" x2="246" y2="238">
      <stop offset="0%" stop-color="#FFE7A3"/>
      <stop offset="43%" stop-color="#FB7185"/>
      <stop offset="100%" stop-color="#7C2D12"/>
    </linearGradient>
    <linearGradient id="suit" x1="82" y1="216" x2="238" y2="304">
      <stop offset="0%" stop-color="#0F172A"/>
      <stop offset="50%" stop-color="#1F2937"/>
      <stop offset="100%" stop-color="#083344"/>
    </linearGradient>
    <linearGradient id="visor" x1="98" y1="148" x2="220" y2="160">
      <stop offset="0%" stop-color="#67E8F9" stop-opacity="0.18"/>
      <stop offset="55%" stop-color="#22D3EE" stop-opacity="0.44"/>
      <stop offset="100%" stop-color="#F9A8D4" stop-opacity="0.2"/>
    </linearGradient>
    <filter id="softShadow" x="-20%" y="-20%" width="140%" height="140%">
      <feDropShadow dx="0" dy="18" stdDeviation="18" flood-color="#000000" flood-opacity="0.45"/>
    </filter>
  </defs>

  <rect width="320" height="320" rx="46" fill="#0A0D14"/>
  <rect x="8" y="8" width="304" height="304" rx="40" fill="url(#bgGlow)" stroke="#67E8F9" stroke-opacity="0.28" stroke-width="2"/>

  <g opacity="0.35">
    <path d="M33 80H83M236 80H287M48 244H98M222 244H272" stroke="#67E8F9" stroke-width="3" stroke-linecap="round"/>
    <path d="M42 102H68M252 102H278M36 222H62M258 222H284" stroke="#FB7185" stroke-width="2" stroke-linecap="round"/>
    <circle cx="61" cy="65" r="4" fill="#FBBF24"/>
    <circle cx="261" cy="68" r="4" fill="#67E8F9"/>
    <circle cx="48" cy="258" r="3" fill="#34D399"/>
    <circle cx="275" cy="258" r="3" fill="#FB7185"/>
  </g>

  <g filter="url(#softShadow)">
    <path d="M78 136C75 82 108 42 158 38C215 33 253 75 247 140C244 176 234 219 215 242H103C85 217 80 173 78 136Z" fill="url(#hair)"/>
    <path d="M91 138C82 115 88 85 108 66C104 91 112 113 130 128C118 132 104 136 91 138Z" fill="#FDE68A" opacity="0.72"/>
    <path d="M231 139C241 113 234 82 211 62C218 92 209 115 190 129C203 133 218 137 231 139Z" fill="#BE123C" opacity="0.45"/>

    <path d="M104 139C102 91 123 64 160 62C197 64 219 92 216 140L211 185C207 222 187 246 160 247C133 246 113 222 109 185L104 139Z" fill="#FFD7C6"/>
    <path d="M108 150C101 151 96 158 98 170C100 182 106 190 113 188L108 150Z" fill="#F9B8A8"/>
    <path d="M212 150C219 151 224 158 222 170C220 182 214 190 207 188L212 150Z" fill="#F9B8A8"/>

    <path d="M94 144C108 112 132 92 163 84C144 113 123 130 94 144Z" fill="#FFE8A3"/>
    <path d="M122 72C142 98 169 114 215 122C205 82 176 58 146 59C137 60 129 64 122 72Z" fill="#FBBF24" opacity="0.72"/>
    <path d="M181 72C202 90 215 115 218 147C198 132 181 111 181 72Z" fill="#FB7185" opacity="0.72"/>

    <path d="M111 147C126 139 139 139 151 148" stroke="#7F1D1D" stroke-width="5" stroke-linecap="round"/>
    <path d="M169 148C181 139 195 139 209 147" stroke="#7F1D1D" stroke-width="5" stroke-linecap="round"/>
    <ellipse cx="132" cy="160" rx="10" ry="13" fill="#111827"/>
    <ellipse cx="189" cy="160" rx="10" ry="13" fill="#111827"/>
    <circle cx="136" cy="155" r="3" fill="#67E8F9"/>
    <circle cx="193" cy="155" r="3" fill="#67E8F9"/>
    <path d="M154 166C151 178 151 183 160 184" stroke="#D9776A" stroke-width="3" stroke-linecap="round"/>
    <path d="M145 202C154 209 166 209 176 202" stroke="#BE123C" stroke-width="4" stroke-linecap="round"/>
    <path d="M116 183C124 188 132 188 140 184" stroke="#FB7185" stroke-width="3" stroke-linecap="round" opacity="0.45"/>
    <path d="M181 184C189 188 197 188 205 183" stroke="#FB7185" stroke-width="3" stroke-linecap="round" opacity="0.45"/>

    <path d="M98 155C122 144 198 144 222 155V171C197 163 122 163 98 171V155Z" fill="url(#visor)" stroke="#67E8F9" stroke-opacity="0.55" stroke-width="2"/>
    <path d="M113 156H142M179 156H207" stroke="#E0F2FE" stroke-opacity="0.65" stroke-width="2" stroke-linecap="round"/>

    <path d="M91 145C83 169 85 197 103 222C95 194 96 169 108 151L91 145Z" fill="#B91C1C" opacity="0.42"/>
    <path d="M229 145C237 169 235 197 217 222C225 194 224 169 212 151L229 145Z" fill="#7F1D1D" opacity="0.42"/>
    <path d="M92 198C105 222 126 237 151 241" stroke="#FBBF24" stroke-opacity="0.32" stroke-width="3" stroke-linecap="round"/>
    <path d="M228 198C215 222 194 237 169 241" stroke="#FB7185" stroke-opacity="0.32" stroke-width="3" stroke-linecap="round"/>

    <path d="M102 304C104 260 126 234 160 234C194 234 216 260 218 304H102Z" fill="url(#suit)"/>
    <path d="M128 242L160 278L192 242" stroke="#67E8F9" stroke-width="5" stroke-linecap="round" stroke-linejoin="round"/>
    <path d="M128 270H192" stroke="#FB7185" stroke-width="5" stroke-linecap="round"/>
    <rect x="146" y="250" width="28" height="16" rx="4" fill="#111827" stroke="#FBBF24" stroke-width="2"/>
  </g>

  <g opacity="0.75">
    <path d="M42 42L58 42L58 58" stroke="#67E8F9" stroke-width="3" stroke-linecap="round"/>
    <path d="M278 42L262 42L262 58" stroke="#FB7185" stroke-width="3" stroke-linecap="round"/>
    <path d="M42 278L58 278L58 262" stroke="#FB7185" stroke-width="3" stroke-linecap="round"/>
    <path d="M278 278L262 278L262 262" stroke="#67E8F9" stroke-width="3" stroke-linecap="round"/>
  </g>
</svg>
